<svg width="20" height="21" viewBox="0 0 20 21" fill="none" xmlns="http://www.w3.org/2000/svg">
<circle cx="9.99998" cy="12.528" r="1.66667" fill="#A9A9A9"/>
<path d="M3.75 11.61C3.75 10.0463 3.75 9.26445 4.16329 8.72584C4.26969 8.58717 4.39381 8.46305 4.53248 8.35665C5.07109 7.94336 5.85295 7.94336 7.41667 7.94336H12.5833C14.147 7.94336 14.9289 7.94336 15.4675 8.35665C15.6062 8.46305 15.7303 8.58717 15.8367 8.72584C16.25 9.26445 16.25 10.0463 16.25 11.61V11.61C16.25 13.9556 16.25 15.1284 15.6301 15.9363C15.4705 16.1443 15.2843 16.3305 15.0763 16.4901C14.2684 17.11 13.0956 17.11 10.75 17.11H9.25C6.90442 17.11 5.73164 17.11 4.92372 16.4901C4.71572 16.3305 4.52954 16.1443 4.36994 15.9363C3.75 15.1284 3.75 13.9556 3.75 11.61V11.61Z" stroke="#A9A9A9"/>
<path d="M13.75 7.94336V6.69336C13.75 4.62229 12.0711 2.94336 10 2.94336V2.94336C7.92893 2.94336 6.25 4.62229 6.25 6.69336V7.94336" stroke="#A9A9A9" stroke-linecap="round"/>
</svg>
