<svg width="24" height="24" viewBox="0 0 24 24" fill="none" xmlns="http://www.w3.org/2000/svg">
<path d="M4 10.5273L2.93934 11.588L1.87868 10.5273L2.93934 9.46668L4 10.5273ZM21.5 18.5273C21.5 19.3558 20.8284 20.0273 20 20.0273C19.1716 20.0273 18.5 19.3558 18.5 18.5273L21.5 18.5273ZM7.93934 16.588L2.93934 11.588L5.06066 9.46668L10.0607 14.4667L7.93934 16.588ZM2.93934 9.46668L7.93934 4.46668L10.0607 6.588L5.06066 11.588L2.93934 9.46668ZM4 9.02734L14 9.02734L14 12.0273L4 12.0273L4 9.02734ZM21.5 16.5273L21.5 18.5273L18.5 18.5273L18.5 16.5273L21.5 16.5273ZM14 9.02734C18.1421 9.02734 21.5 12.3852 21.5 16.5273L18.5 16.5273C18.5 14.0421 16.4853 12.0273 14 12.0273L14 9.02734Z" fill="#FFA500"/>
</svg>
