<svg width="20" height="21" viewBox="0 0 20 21" fill="none" xmlns="http://www.w3.org/2000/svg">
<path d="M8.88887 4.69368H11.1111C11.1148 4.69368 11.1185 4.69369 11.1224 4.69369C11.1615 4.69373 11.2092 4.69378 11.2538 4.68988C11.7372 4.64758 12.1205 4.26429 12.1628 3.78084C12.1667 3.73624 12.1667 3.68855 12.1667 3.6494C12.1667 3.64556 12.1666 3.6418 12.1666 3.63813C12.1666 3.63664 12.1667 3.63491 12.1667 3.63297C12.1667 3.61511 12.1668 3.57935 12.1638 3.54499C12.1321 3.1824 11.8446 2.89493 11.482 2.86321C11.4476 2.8602 11.4119 2.86029 11.394 2.86034C11.3921 2.86035 11.3904 2.86035 11.3889 2.86035H8.61109C8.6096 2.86035 8.60787 2.86035 8.60593 2.86034C8.58807 2.86029 8.55231 2.8602 8.51795 2.86321C8.15536 2.89493 7.86789 3.1824 7.83617 3.54498C7.83316 3.57935 7.83326 3.61511 7.8333 3.63297C7.83331 3.63491 7.83331 3.63664 7.83331 3.63813C7.83331 3.6418 7.83331 3.64556 7.83331 3.64941C7.83327 3.68855 7.83322 3.73625 7.83712 3.78084C7.87941 4.26429 8.26271 4.64758 8.74616 4.68988C8.79075 4.69378 8.83845 4.69373 8.87759 4.69369C8.88144 4.69369 8.8852 4.69368 8.88887 4.69368Z" stroke="#A9A9A9"/>
<rect x="5" y="2.52734" width="10" height="15" rx="2" stroke="#A9A9A9"/>
<circle cx="10" cy="15.0277" r="0.833333" fill="#A9A9A9"/>
</svg>
