<svg width="25" height="26" viewBox="0 0 25 26" fill="none" xmlns="http://www.w3.org/2000/svg">
<g clip-path="url(#clip0_212_1122)">
<path fill-rule="evenodd" clip-rule="evenodd" d="M5.37881 12.9066C5.37881 12.1127 5.51066 11.3516 5.74599 10.6377L1.62682 7.49219C0.824012 9.12219 0.371704 10.9589 0.371704 12.9066C0.371704 14.8527 0.823456 16.6883 1.62515 18.3172L5.7421 15.1655C5.50899 14.455 5.37881 13.6966 5.37881 12.9066Z" fill="#FBBC05"/>
<path fill-rule="evenodd" clip-rule="evenodd" d="M12.6113 5.68457C14.336 5.68457 15.8937 6.29568 17.1177 7.29568L20.6783 3.74013C18.5086 1.85124 15.7268 0.68457 12.6113 0.68457C7.77444 0.68457 3.61743 3.45068 1.62683 7.49235L5.74601 10.6379C6.69513 7.75679 9.40063 5.68457 12.6113 5.68457Z" fill="#EB4335"/>
<path fill-rule="evenodd" clip-rule="evenodd" d="M12.6113 20.1291C9.40063 20.1291 6.69513 18.0569 5.74601 15.1758L1.62683 18.3208C3.61743 22.363 7.77444 25.1291 12.6113 25.1291C15.5966 25.1291 18.4468 24.0691 20.5859 22.083L16.676 19.0602C15.5727 19.7552 14.1835 20.1291 12.6113 20.1291Z" fill="#04AC0B"/>
<path fill-rule="evenodd" clip-rule="evenodd" d="M24.2945 12.9068C24.2945 12.1846 24.1832 11.4068 24.0163 10.6846H12.6113V15.4068H19.1761C18.8479 17.0168 17.9544 18.2546 16.6759 19.0601L20.5859 22.0829C22.833 19.9973 24.2945 16.8907 24.2945 12.9068Z" fill="#4285F4"/>
</g>
<defs>
<clipPath id="clip0_212_1122">
<rect width="25" height="25" fill="white" transform="translate(0 0.407227)"/>
</clipPath>
</defs>
</svg>
