<svg fill="#0a0907" xmlns="http://www.w3.org/2000/svg"  viewBox="0 0 64 64" width="64px" height="64px"><path d="M 32 8 C 18.756603 8 8 18.756603 8 32 C 8 45.243397 18.756603 56 32 56 C 45.243397 56 56 45.243397 56 32 C 56 31.643109 55.988869 31.295124 55.974609 30.957031 A 1.0001 1.0001 0 0 0 54.974609 30 L 38.46875 30 A 1.0001 1.0001 0 1 0 38.46875 32 L 54 32 C 54 44.162603 44.162603 54 32 54 C 19.837397 54 10 44.162603 10 32 C 10 19.837397 19.837397 10 32 10 C 37.628758 10 42.700244 12.170056 46.589844 15.642578 L 41.75 19.34375 C 39.050203 17.259958 35.672938 16 32 16 C 23.17552 16 16 23.17552 16 32 C 16 40.82448 23.17552 48 32 48 C 38.262148 48 42.939774 44.599301 45.376953 40 L 47.595703 40 C 48.919572 40 49.989546 39.50839 50.595703 38.712891 C 51.20186 37.917392 51.317774 36.924119 51.083984 36.066406 C 50.850195 35.208694 50.245657 34.414233 49.316406 34.082031 C 48.851781 33.91593 48.334775 33.890502 47.804688 34.001953 C 47.2746 34.113406 46.732438 34.36184 46.216797 34.746094 C 45.687688 35.14021 45.246153 35.702336 44.818359 36.396484 C 44.520073 36.880492 44.249345 37.424792 44.039062 38 L 35 38 L 35 31 A 1.0001 1.0001 0 1 0 33 31 L 33 39 A 1.0001 1.0001 0 0 0 34 40 L 42.949219 40 C 40.722869 43.506794 37.083464 46 32 46 C 24.25648 46 18 39.74352 18 32 C 18 24.25648 24.25648 18 32 18 C 35.3997 18 38.497813 19.219302 40.923828 21.232422 A 1.0001 1.0001 0 0 0 40.923828 21.234375 A 1.0001 1.0001 0 0 0 41.699219 21.626953 A 1.0001 1.0001 0 0 0 41.705078 21.626953 A 1.0001 1.0001 0 0 0 42.558594 21.242188 L 48.804688 16.466797 A 1.0001 1.0001 0 0 0 48.900391 14.962891 C 44.563936 10.660857 38.586967 8 32 8 z M 48.451172 35.921875 C 48.525452 35.927929 48.589493 35.945167 48.644531 35.964844 C 48.864686 36.043544 49.066961 36.271385 49.154297 36.591797 C 49.241637 36.912209 49.193047 37.254343 49.005859 37.5 C 48.818673 37.745657 48.465834 38 47.595703 38 L 46.28125 38 C 46.37433 37.815562 46.418071 37.615066 46.521484 37.447266 C 46.856191 36.904164 47.259219 36.463493 47.412109 36.349609 C 47.907274 35.980615 48.228333 35.903712 48.451172 35.921875 z"/></svg>